<svg xmlns="http://www.w3.org/2000/svg" width="78.18" height="78.18" viewBox="0 0 78.18 78.18"><defs><style>.a{fill:#d5a400;}.b{fill:#fff;fill-rule:evenodd;}</style></defs><circle class="a" cx="39" cy="39" r="39"/><g transform="translate(17.482 21.256)"><path class="b" d="M30.911,3.258c6.545-7.068,7.649-.646,12.468.7.581.162,1.014.2.975.476-.422,2.769-1.325,3.292-2.332,3.317a7.225,7.225,0,0,0-2.689.328,4.945,4.945,0,0,0-1.92,1.541L30.568,6.135a11.444,11.444,0,0,0,.343-2.877Zm5.787,7.7c-1.458,3.884.487,9.66-6.032,11.786a38.532,38.532,0,0,0,.087,9.923l.791-.083c1.426-.152,1.415,1.144.74,1.978H28.067c-.307-3.964-1.072-8.3-.754-12.086A8.266,8.266,0,0,1,21.342,22c-1.17-.444-6-3.332-7.31-2.159-.736.664,1.231,3.314-3.628,8.017l.087,4.653h.823c1.245,0,1.177,1.245.726,2.058h-2.4c-1.6,0-1.26.17-1.281-1.509l-.04-3.621-.256-2.245c0-1.336.964-2.758.047-5.942-.606-2.1-.556-3.783-2.141-4.014C4.5,20.2,3.09,22.913,1.856,26.021c-.083.209-.2.408-.3.614-1.408,3.242-2,.8-1.209-1.119l.527-1.285c.675-2.718,2.577-7.815,4.371-9.707C12.01,7.387,25.72,14.138,29.76,7.961l6.938,3Z" transform="translate(0.005 0.003)"/></g></svg>